<mxfile host="app.diagrams.net" modified="2022-05-11T05:13:18.363Z" agent="5.0 (Macintosh; Intel Mac OS X 10_15_7) AppleWebKit/537.36 (KHTML, like Gecko) Chrome/101.0.4951.54 Safari/537.36" etag="UnqBscWCpC2OeTlWXVtM" version="17.1.1" type="github">
  <diagram id="bhJ_dCEcqBeLiY0SfNMg" name="第 1 页">
    <mxGraphModel dx="2013" dy="614" grid="1" gridSize="10" guides="1" tooltips="1" connect="1" arrows="1" fold="1" page="1" pageScale="1" pageWidth="827" pageHeight="1169" math="0" shadow="0">
      <root>
        <mxCell id="0" />
        <mxCell id="1" parent="0" />
        <mxCell id="ZUNlMB66Ip9_6zSFA5tc-78" value="" style="edgeStyle=orthogonalEdgeStyle;rounded=0;orthogonalLoop=1;jettySize=auto;html=1;fontSize=12;" edge="1" parent="1" source="ZUNlMB66Ip9_6zSFA5tc-1" target="ZUNlMB66Ip9_6zSFA5tc-77">
          <mxGeometry relative="1" as="geometry" />
        </mxCell>
        <mxCell id="ZUNlMB66Ip9_6zSFA5tc-1" value="" style="rounded=0;whiteSpace=wrap;html=1;" vertex="1" parent="1">
          <mxGeometry x="135" y="10" width="130" height="630" as="geometry" />
        </mxCell>
        <mxCell id="ZUNlMB66Ip9_6zSFA5tc-2" value="&lt;span style=&quot;color: rgba(0 , 0 , 0 , 0) ; font-family: monospace ; font-size: 0px&quot;&gt;%3CmxGraphModel%3E%3Croot%3E%3CmxCell%20id%3D%220%22%2F%3E%3CmxCell%20id%3D%221%22%20parent%3D%220%22%2F%3E%3CmxCell%20id%3D%222%22%20value%3D%22%26lt%3Bfont%20style%3D%26quot%3Bfont-size%3A%2018px%26quot%3B%26gt%3BTM%26lt%3B%2Ffont%26gt%3B%22%20style%3D%22text%3Bhtml%3D1%3Balign%3Dcenter%3BverticalAlign%3Dmiddle%3Bresizable%3D0%3Bpoints%3D%5B%5D%3Bautosize%3D1%3BstrokeColor%3Dnone%3BfillColor%3Dnone%3B%22%20vertex%3D%221%22%20parent%3D%221%22%3E%3CmxGeometry%20x%3D%22180%22%20y%3D%22660%22%20width%3D%2240%22%20height%3D%2220%22%20as%3D%22geometry%22%2F%3E%3C%2FmxCell%3E%3C%2Froot%3E%3C%2FmxGraphModel%3E&lt;/span&gt;" style="rounded=0;whiteSpace=wrap;html=1;" vertex="1" parent="1">
          <mxGeometry x="710" y="20" width="230" height="120" as="geometry" />
        </mxCell>
        <mxCell id="ZUNlMB66Ip9_6zSFA5tc-3" value="" style="rounded=0;whiteSpace=wrap;html=1;" vertex="1" parent="1">
          <mxGeometry x="710" y="250" width="230" height="120" as="geometry" />
        </mxCell>
        <mxCell id="ZUNlMB66Ip9_6zSFA5tc-4" value="" style="rounded=0;whiteSpace=wrap;html=1;" vertex="1" parent="1">
          <mxGeometry x="710" y="490" width="230" height="120" as="geometry" />
        </mxCell>
        <mxCell id="ZUNlMB66Ip9_6zSFA5tc-30" value="" style="edgeStyle=orthogonalEdgeStyle;rounded=0;orthogonalLoop=1;jettySize=auto;html=1;" edge="1" parent="1" source="ZUNlMB66Ip9_6zSFA5tc-15" target="ZUNlMB66Ip9_6zSFA5tc-29">
          <mxGeometry relative="1" as="geometry" />
        </mxCell>
        <mxCell id="ZUNlMB66Ip9_6zSFA5tc-36" value="" style="edgeStyle=orthogonalEdgeStyle;rounded=0;orthogonalLoop=1;jettySize=auto;html=1;" edge="1" parent="1" source="ZUNlMB66Ip9_6zSFA5tc-15" target="ZUNlMB66Ip9_6zSFA5tc-27">
          <mxGeometry relative="1" as="geometry" />
        </mxCell>
        <mxCell id="ZUNlMB66Ip9_6zSFA5tc-15" value="获取resumeToken" style="text;html=1;align=center;verticalAlign=middle;resizable=0;points=[];autosize=1;strokeColor=none;fillColor=none;" vertex="1" parent="1">
          <mxGeometry x="145" y="30" width="110" height="20" as="geometry" />
        </mxCell>
        <mxCell id="ZUNlMB66Ip9_6zSFA5tc-38" value="" style="edgeStyle=orthogonalEdgeStyle;rounded=0;orthogonalLoop=1;jettySize=auto;html=1;" edge="1" parent="1" source="ZUNlMB66Ip9_6zSFA5tc-16" target="ZUNlMB66Ip9_6zSFA5tc-17">
          <mxGeometry relative="1" as="geometry" />
        </mxCell>
        <mxCell id="ZUNlMB66Ip9_6zSFA5tc-16" value="获取全量快照" style="text;html=1;align=center;verticalAlign=middle;resizable=0;points=[];autosize=1;strokeColor=none;fillColor=none;" vertex="1" parent="1">
          <mxGeometry x="155" y="160" width="90" height="20" as="geometry" />
        </mxCell>
        <mxCell id="ZUNlMB66Ip9_6zSFA5tc-42" value="" style="edgeStyle=orthogonalEdgeStyle;rounded=0;orthogonalLoop=1;jettySize=auto;html=1;" edge="1" parent="1" source="ZUNlMB66Ip9_6zSFA5tc-17" target="ZUNlMB66Ip9_6zSFA5tc-18">
          <mxGeometry relative="1" as="geometry" />
        </mxCell>
        <mxCell id="ZUNlMB66Ip9_6zSFA5tc-17" value="根据在线TE节点，&lt;br&gt;切分全量快照" style="text;html=1;align=center;verticalAlign=middle;resizable=0;points=[];autosize=1;strokeColor=none;fillColor=none;" vertex="1" parent="1">
          <mxGeometry x="145" y="235" width="110" height="30" as="geometry" />
        </mxCell>
        <mxCell id="ZUNlMB66Ip9_6zSFA5tc-43" value="" style="edgeStyle=orthogonalEdgeStyle;rounded=0;orthogonalLoop=1;jettySize=auto;html=1;" edge="1" parent="1" source="ZUNlMB66Ip9_6zSFA5tc-18" target="ZUNlMB66Ip9_6zSFA5tc-28">
          <mxGeometry relative="1" as="geometry" />
        </mxCell>
        <mxCell id="ZUNlMB66Ip9_6zSFA5tc-18" value="向TE分发全量快照" style="text;html=1;align=center;verticalAlign=middle;resizable=0;points=[];autosize=1;strokeColor=none;fillColor=none;" vertex="1" parent="1">
          <mxGeometry x="145" y="315" width="110" height="20" as="geometry" />
        </mxCell>
        <mxCell id="ZUNlMB66Ip9_6zSFA5tc-23" value="向TE发起增量订阅命令" style="text;html=1;align=center;verticalAlign=middle;resizable=0;points=[];autosize=1;strokeColor=none;fillColor=none;" vertex="1" parent="1">
          <mxGeometry x="130" y="530" width="140" height="20" as="geometry" />
        </mxCell>
        <mxCell id="ZUNlMB66Ip9_6zSFA5tc-41" style="edgeStyle=orthogonalEdgeStyle;rounded=0;orthogonalLoop=1;jettySize=auto;html=1;" edge="1" parent="1" source="ZUNlMB66Ip9_6zSFA5tc-27" target="ZUNlMB66Ip9_6zSFA5tc-16">
          <mxGeometry relative="1" as="geometry" />
        </mxCell>
        <mxCell id="ZUNlMB66Ip9_6zSFA5tc-47" style="edgeStyle=orthogonalEdgeStyle;rounded=0;orthogonalLoop=1;jettySize=auto;html=1;entryX=0;entryY=0.5;entryDx=0;entryDy=0;" edge="1" parent="1" source="ZUNlMB66Ip9_6zSFA5tc-27" target="ZUNlMB66Ip9_6zSFA5tc-46">
          <mxGeometry relative="1" as="geometry" />
        </mxCell>
        <mxCell id="ZUNlMB66Ip9_6zSFA5tc-48" value="根据执行节点动态调整分区数量" style="edgeLabel;html=1;align=center;verticalAlign=middle;resizable=0;points=[];" vertex="1" connectable="0" parent="ZUNlMB66Ip9_6zSFA5tc-47">
          <mxGeometry x="-0.1368" y="-1" relative="1" as="geometry">
            <mxPoint as="offset" />
          </mxGeometry>
        </mxCell>
        <mxCell id="ZUNlMB66Ip9_6zSFA5tc-27" value="计算线程数量，&lt;br&gt;开始增量发布&lt;br&gt;订阅mongodb的&lt;br&gt;changestreamApi" style="text;html=1;align=center;verticalAlign=middle;resizable=0;points=[];autosize=1;strokeColor=none;fillColor=none;" vertex="1" parent="1">
          <mxGeometry x="145" y="70" width="110" height="60" as="geometry" />
        </mxCell>
        <mxCell id="ZUNlMB66Ip9_6zSFA5tc-44" value="" style="edgeStyle=orthogonalEdgeStyle;rounded=0;orthogonalLoop=1;jettySize=auto;html=1;" edge="1" parent="1" source="ZUNlMB66Ip9_6zSFA5tc-28" target="ZUNlMB66Ip9_6zSFA5tc-23">
          <mxGeometry relative="1" as="geometry" />
        </mxCell>
        <mxCell id="ZUNlMB66Ip9_6zSFA5tc-28" value="统计TE执行结果" style="text;html=1;align=center;verticalAlign=middle;resizable=0;points=[];autosize=1;strokeColor=none;fillColor=none;" vertex="1" parent="1">
          <mxGeometry x="150" y="410" width="100" height="20" as="geometry" />
        </mxCell>
        <mxCell id="ZUNlMB66Ip9_6zSFA5tc-29" value="定时持久化token" style="whiteSpace=wrap;html=1;" vertex="1" parent="1">
          <mxGeometry x="330" y="10" width="120" height="60" as="geometry" />
        </mxCell>
        <mxCell id="ZUNlMB66Ip9_6zSFA5tc-33" style="edgeStyle=orthogonalEdgeStyle;rounded=0;orthogonalLoop=1;jettySize=auto;html=1;entryX=-0.038;entryY=0.144;entryDx=0;entryDy=0;entryPerimeter=0;" edge="1" parent="1" source="ZUNlMB66Ip9_6zSFA5tc-32" target="ZUNlMB66Ip9_6zSFA5tc-1">
          <mxGeometry relative="1" as="geometry" />
        </mxCell>
        <mxCell id="ZUNlMB66Ip9_6zSFA5tc-34" value="定时获取写入内存" style="edgeLabel;html=1;align=center;verticalAlign=middle;resizable=0;points=[];" vertex="1" connectable="0" parent="ZUNlMB66Ip9_6zSFA5tc-33">
          <mxGeometry x="-0.2167" relative="1" as="geometry">
            <mxPoint as="offset" />
          </mxGeometry>
        </mxCell>
        <mxCell id="ZUNlMB66Ip9_6zSFA5tc-32" value="获取增量执行任务" style="whiteSpace=wrap;html=1;" vertex="1" parent="1">
          <mxGeometry x="-220" y="70" width="120" height="60" as="geometry" />
        </mxCell>
        <mxCell id="ZUNlMB66Ip9_6zSFA5tc-49" style="edgeStyle=orthogonalEdgeStyle;rounded=0;orthogonalLoop=1;jettySize=auto;html=1;entryX=0;entryY=0.5;entryDx=0;entryDy=0;" edge="1" parent="1" source="ZUNlMB66Ip9_6zSFA5tc-46" target="ZUNlMB66Ip9_6zSFA5tc-2">
          <mxGeometry relative="1" as="geometry" />
        </mxCell>
        <mxCell id="ZUNlMB66Ip9_6zSFA5tc-50" style="edgeStyle=orthogonalEdgeStyle;rounded=0;orthogonalLoop=1;jettySize=auto;html=1;" edge="1" parent="1" source="ZUNlMB66Ip9_6zSFA5tc-46" target="ZUNlMB66Ip9_6zSFA5tc-3">
          <mxGeometry relative="1" as="geometry" />
        </mxCell>
        <mxCell id="ZUNlMB66Ip9_6zSFA5tc-51" style="edgeStyle=orthogonalEdgeStyle;rounded=0;orthogonalLoop=1;jettySize=auto;html=1;entryX=0;entryY=0.5;entryDx=0;entryDy=0;" edge="1" parent="1" source="ZUNlMB66Ip9_6zSFA5tc-46" target="ZUNlMB66Ip9_6zSFA5tc-4">
          <mxGeometry relative="1" as="geometry" />
        </mxCell>
        <mxCell id="ZUNlMB66Ip9_6zSFA5tc-46" value="kafka" style="shape=process;whiteSpace=wrap;html=1;backgroundOutline=1;" vertex="1" parent="1">
          <mxGeometry x="450" y="280" width="120" height="60" as="geometry" />
        </mxCell>
        <mxCell id="ZUNlMB66Ip9_6zSFA5tc-52" value="向TM发送心跳" style="text;html=1;align=center;verticalAlign=middle;resizable=0;points=[];autosize=1;strokeColor=none;fillColor=none;" vertex="1" parent="1">
          <mxGeometry x="780" y="265" width="90" height="20" as="geometry" />
        </mxCell>
        <mxCell id="ZUNlMB66Ip9_6zSFA5tc-53" value="全量快照再分片" style="text;html=1;align=center;verticalAlign=middle;resizable=0;points=[];autosize=1;strokeColor=none;fillColor=none;" vertex="1" parent="1">
          <mxGeometry x="780" y="285" width="100" height="20" as="geometry" />
        </mxCell>
        <mxCell id="ZUNlMB66Ip9_6zSFA5tc-54" value="执行全量快照" style="text;html=1;align=center;verticalAlign=middle;resizable=0;points=[];autosize=1;strokeColor=none;fillColor=none;" vertex="1" parent="1">
          <mxGeometry x="785" y="305" width="90" height="20" as="geometry" />
        </mxCell>
        <mxCell id="ZUNlMB66Ip9_6zSFA5tc-55" value="向TM上报执行结果" style="text;html=1;align=center;verticalAlign=middle;resizable=0;points=[];autosize=1;strokeColor=none;fillColor=none;" vertex="1" parent="1">
          <mxGeometry x="770" y="325" width="120" height="20" as="geometry" />
        </mxCell>
        <mxCell id="ZUNlMB66Ip9_6zSFA5tc-56" value="增量订阅" style="text;html=1;align=center;verticalAlign=middle;resizable=0;points=[];autosize=1;strokeColor=none;fillColor=none;" vertex="1" parent="1">
          <mxGeometry x="800" y="345" width="60" height="20" as="geometry" />
        </mxCell>
        <mxCell id="ZUNlMB66Ip9_6zSFA5tc-59" value="TE" style="text;html=1;align=center;verticalAlign=middle;resizable=0;points=[];autosize=1;strokeColor=none;fillColor=none;fontSize=18;" vertex="1" parent="1">
          <mxGeometry x="805" y="540" width="40" height="30" as="geometry" />
        </mxCell>
        <mxCell id="ZUNlMB66Ip9_6zSFA5tc-66" style="edgeStyle=orthogonalEdgeStyle;rounded=0;orthogonalLoop=1;jettySize=auto;html=1;entryX=0.038;entryY=0.27;entryDx=0;entryDy=0;entryPerimeter=0;fontSize=12;" edge="1" parent="1" source="ZUNlMB66Ip9_6zSFA5tc-62" target="ZUNlMB66Ip9_6zSFA5tc-1">
          <mxGeometry relative="1" as="geometry" />
        </mxCell>
        <mxCell id="ZUNlMB66Ip9_6zSFA5tc-68" value="未存在全量执行任务时，下发任务" style="edgeLabel;html=1;align=center;verticalAlign=middle;resizable=0;points=[];fontSize=12;" vertex="1" connectable="0" parent="ZUNlMB66Ip9_6zSFA5tc-66">
          <mxGeometry x="0.0926" y="-3" relative="1" as="geometry">
            <mxPoint x="-13" y="-3" as="offset" />
          </mxGeometry>
        </mxCell>
        <mxCell id="ZUNlMB66Ip9_6zSFA5tc-62" value="定时获取全量执行任务" style="whiteSpace=wrap;html=1;" vertex="1" parent="1">
          <mxGeometry x="-220" y="150" width="120" height="60" as="geometry" />
        </mxCell>
        <mxCell id="ZUNlMB66Ip9_6zSFA5tc-74" value="" style="curved=1;endArrow=classic;html=1;rounded=0;fontSize=12;" edge="1" parent="1" source="ZUNlMB66Ip9_6zSFA5tc-17" target="ZUNlMB66Ip9_6zSFA5tc-27">
          <mxGeometry width="50" height="50" relative="1" as="geometry">
            <mxPoint x="-90" y="370" as="sourcePoint" />
            <mxPoint x="-40" y="320" as="targetPoint" />
            <Array as="points">
              <mxPoint x="120" y="200" />
            </Array>
          </mxGeometry>
        </mxCell>
        <mxCell id="ZUNlMB66Ip9_6zSFA5tc-75" value="&lt;font style=&quot;font-size: 18px&quot;&gt;TM&lt;/font&gt;" style="text;html=1;align=center;verticalAlign=middle;resizable=0;points=[];autosize=1;strokeColor=none;fillColor=none;" vertex="1" parent="1">
          <mxGeometry x="180" y="590" width="40" height="20" as="geometry" />
        </mxCell>
        <mxCell id="ZUNlMB66Ip9_6zSFA5tc-76" value="TE" style="text;html=1;align=center;verticalAlign=middle;resizable=0;points=[];autosize=1;strokeColor=none;fillColor=none;fontSize=18;" vertex="1" parent="1">
          <mxGeometry x="810" y="60" width="40" height="30" as="geometry" />
        </mxCell>
        <mxCell id="ZUNlMB66Ip9_6zSFA5tc-77" value="提供相关配置执行API" style="ellipse;whiteSpace=wrap;html=1;rounded=0;" vertex="1" parent="1">
          <mxGeometry x="-70" y="295" width="120" height="60" as="geometry" />
        </mxCell>
      </root>
    </mxGraphModel>
  </diagram>
</mxfile>
